<svg width="20" height="20" viewBox="0 0 20 20" fill="none" xmlns="http://www.w3.org/2000/svg">
<path d="M19.99 10.1871C19.99 9.36767 19.9246 8.76973 19.7839 8.14966H10.2041V11.8483H15.8277C15.7201 12.7673 15.1512 14.1512 13.8618 15.0813L13.8416 15.2051L16.7185 17.4969L16.9239 17.5174C18.9342 15.6455 19.99 13.1299 19.99 10.1871Z" fill="#4285F4"/>
<path d="M10.2041 19.9313C12.9592 19.9313 15.2429 19.0454 16.9239 17.5174L13.8618 15.0813C13.0454 15.6613 11.9492 16.0454 10.2041 16.0454C7.50909 16.0454 5.24909 14.1735 4.47909 11.685L4.36218 11.6939L1.38364 14.0814L1.34545 14.1916C3.01636 17.4813 6.33636 19.9313 10.2041 19.9313Z" fill="#34A853"/>
<path d="M4.47909 11.685C4.27273 11.0735 4.15455 10.4174 4.15455 9.73137C4.15455 9.04537 4.27273 8.38928 4.46818 7.77782L4.46273 7.64746L1.44364 5.21655L1.34545 5.26928C0.654545 6.64746 0.272727 8.14537 0.272727 9.73137C0.272727 11.3174 0.654545 12.8152 1.34545 14.1935L4.47909 11.685Z" fill="#FBBC05"/>
<path d="M10.2041 3.41705C12.2627 3.41705 13.6041 4.34432 14.3627 5.04432L17.0627 2.41705C15.2318 0.731323 12.9592 -0.0686768 10.2041 -0.0686768C6.33636 -0.0686768 3.01636 2.38132 1.34545 5.26928L4.46818 7.77782C5.24909 5.28928 7.50909 3.41705 10.2041 3.41705Z" fill="#EB4335"/>
</svg>