<svg width="20" height="26.25" viewBox="0 0 20 26.25" fill="none" xmlns="http://www.w3.org/2000/svg">
<path d="M16.25 8.75H15V6.25C15 2.8125 12.1875 0 8.75 0C5.3125 0 2.5 2.8125 2.5 6.25V8.75H1.25C0.5625 8.75 0 9.3125 0 10V23.75C0 24.4375 0.5625 25 1.25 25H16.25C16.9375 25 17.5 24.4375 17.5 23.75V10C17.5 9.3125 16.9375 8.75 16.25 8.75ZM8.75 18.75C8.0625 18.75 7.5 18.1875 7.5 17.5C7.5 16.8125 8.0625 16.25 8.75 16.25C9.4375 16.25 10 16.8125 10 17.5C10 18.1875 9.4375 18.75 8.75 18.75ZM12.5 8.75H5V6.25C5 4.1875 6.6875 2.5 8.75 2.5C10.8125 2.5 12.5 4.1875 12.5 6.25V8.75Z" fill="#212427"/>
</svg>